<mxfile host="app.diagrams.net" agent="Mozilla/5.0 (Windows NT 10.0; Win64; x64) AppleWebKit/537.36 (KHTML, like Gecko) Chrome/137.0.0.0 Safari/537.36" version="27.1.4">
  <diagram name="第 1 页" id="jIywfD_JO6souDe_vkiq">
    <mxGraphModel dx="1000" dy="609" grid="1" gridSize="10" guides="1" tooltips="1" connect="1" arrows="1" fold="1" page="1" pageScale="1" pageWidth="827" pageHeight="1169" math="0" shadow="0">
      <root>
        <mxCell id="0" />
        <mxCell id="1" parent="0" />
        <mxCell id="wQoGshhMmGxjYzGjcs3c-49" style="rounded=0;orthogonalLoop=1;jettySize=auto;html=1;entryX=0;entryY=0.5;entryDx=0;entryDy=0;strokeWidth=2;fillColor=#b0e3e6;strokeColor=#0e8088;" edge="1" parent="1" source="wQoGshhMmGxjYzGjcs3c-3" target="wQoGshhMmGxjYzGjcs3c-21">
          <mxGeometry relative="1" as="geometry" />
        </mxCell>
        <mxCell id="wQoGshhMmGxjYzGjcs3c-50" style="rounded=0;orthogonalLoop=1;jettySize=auto;html=1;exitX=1;exitY=0.579;exitDx=0;exitDy=0;entryX=0;entryY=0.5;entryDx=0;entryDy=0;exitPerimeter=0;strokeWidth=2;fillColor=#b0e3e6;strokeColor=#0e8088;" edge="1" parent="1" source="wQoGshhMmGxjYzGjcs3c-3" target="wQoGshhMmGxjYzGjcs3c-25">
          <mxGeometry relative="1" as="geometry" />
        </mxCell>
        <mxCell id="wQoGshhMmGxjYzGjcs3c-51" style="rounded=0;orthogonalLoop=1;jettySize=auto;html=1;entryX=0;entryY=0.5;entryDx=0;entryDy=0;exitX=1.017;exitY=0.614;exitDx=0;exitDy=0;exitPerimeter=0;strokeWidth=2;fillColor=#b0e3e6;strokeColor=#0e8088;" edge="1" parent="1" source="wQoGshhMmGxjYzGjcs3c-3" target="wQoGshhMmGxjYzGjcs3c-29">
          <mxGeometry relative="1" as="geometry" />
        </mxCell>
        <mxCell id="wQoGshhMmGxjYzGjcs3c-3" value="" style="ellipse;whiteSpace=wrap;html=1;" vertex="1" parent="1">
          <mxGeometry x="90" y="343" width="100" height="70" as="geometry" />
        </mxCell>
        <mxCell id="wQoGshhMmGxjYzGjcs3c-2" value="" style="shape=actor;whiteSpace=wrap;html=1;" vertex="1" parent="1">
          <mxGeometry x="120" y="345" width="40" height="60" as="geometry" />
        </mxCell>
        <mxCell id="wQoGshhMmGxjYzGjcs3c-52" style="rounded=0;orthogonalLoop=1;jettySize=auto;html=1;entryX=0;entryY=0.5;entryDx=0;entryDy=0;exitX=1;exitY=0.5;exitDx=0;exitDy=0;strokeWidth=2;fillColor=#f8cecc;gradientColor=#ea6b66;strokeColor=#b85450;" edge="1" parent="1" source="wQoGshhMmGxjYzGjcs3c-5" target="wQoGshhMmGxjYzGjcs3c-21">
          <mxGeometry relative="1" as="geometry" />
        </mxCell>
        <mxCell id="wQoGshhMmGxjYzGjcs3c-53" style="rounded=0;orthogonalLoop=1;jettySize=auto;html=1;entryX=0;entryY=0.5;entryDx=0;entryDy=0;exitX=1;exitY=0.5;exitDx=0;exitDy=0;strokeWidth=2;fillColor=#f8cecc;gradientColor=#ea6b66;strokeColor=#b85450;" edge="1" parent="1" source="wQoGshhMmGxjYzGjcs3c-5" target="wQoGshhMmGxjYzGjcs3c-25">
          <mxGeometry relative="1" as="geometry" />
        </mxCell>
        <mxCell id="wQoGshhMmGxjYzGjcs3c-54" style="rounded=0;orthogonalLoop=1;jettySize=auto;html=1;entryX=0;entryY=0.5;entryDx=0;entryDy=0;exitX=1;exitY=0.5;exitDx=0;exitDy=0;strokeWidth=2;fillColor=#f8cecc;gradientColor=#ea6b66;strokeColor=#b85450;" edge="1" parent="1" source="wQoGshhMmGxjYzGjcs3c-5" target="wQoGshhMmGxjYzGjcs3c-29">
          <mxGeometry relative="1" as="geometry" />
        </mxCell>
        <mxCell id="wQoGshhMmGxjYzGjcs3c-5" value="" style="ellipse;whiteSpace=wrap;html=1;" vertex="1" parent="1">
          <mxGeometry x="90" y="428" width="100" height="70" as="geometry" />
        </mxCell>
        <mxCell id="wQoGshhMmGxjYzGjcs3c-6" value="" style="shape=actor;whiteSpace=wrap;html=1;" vertex="1" parent="1">
          <mxGeometry x="120" y="429" width="40" height="60" as="geometry" />
        </mxCell>
        <mxCell id="wQoGshhMmGxjYzGjcs3c-7" value="" style="ellipse;whiteSpace=wrap;html=1;" vertex="1" parent="1">
          <mxGeometry x="94" y="523" width="100" height="70" as="geometry" />
        </mxCell>
        <mxCell id="wQoGshhMmGxjYzGjcs3c-8" value="" style="shape=actor;whiteSpace=wrap;html=1;" vertex="1" parent="1">
          <mxGeometry x="124" y="525" width="40" height="60" as="geometry" />
        </mxCell>
        <mxCell id="wQoGshhMmGxjYzGjcs3c-9" value="" style="ellipse;whiteSpace=wrap;html=1;" vertex="1" parent="1">
          <mxGeometry x="94" y="523" width="100" height="70" as="geometry" />
        </mxCell>
        <mxCell id="wQoGshhMmGxjYzGjcs3c-10" value="" style="shape=actor;whiteSpace=wrap;html=1;" vertex="1" parent="1">
          <mxGeometry x="124" y="525" width="40" height="60" as="geometry" />
        </mxCell>
        <mxCell id="wQoGshhMmGxjYzGjcs3c-55" style="edgeStyle=orthogonalEdgeStyle;rounded=0;orthogonalLoop=1;jettySize=auto;html=1;entryX=0;entryY=0.5;entryDx=0;entryDy=0;curved=1;strokeWidth=2;fillColor=#fad7ac;strokeColor=#b46504;" edge="1" parent="1" source="wQoGshhMmGxjYzGjcs3c-11" target="wQoGshhMmGxjYzGjcs3c-21">
          <mxGeometry relative="1" as="geometry">
            <Array as="points">
              <mxPoint x="260" y="558" />
              <mxPoint x="260" y="404" />
            </Array>
          </mxGeometry>
        </mxCell>
        <mxCell id="wQoGshhMmGxjYzGjcs3c-56" style="edgeStyle=orthogonalEdgeStyle;rounded=0;orthogonalLoop=1;jettySize=auto;html=1;entryX=0;entryY=0.5;entryDx=0;entryDy=0;curved=1;strokeWidth=2;fillColor=#fad7ac;strokeColor=#b46504;" edge="1" parent="1" source="wQoGshhMmGxjYzGjcs3c-11" target="wQoGshhMmGxjYzGjcs3c-25">
          <mxGeometry relative="1" as="geometry" />
        </mxCell>
        <mxCell id="wQoGshhMmGxjYzGjcs3c-57" style="edgeStyle=orthogonalEdgeStyle;rounded=0;orthogonalLoop=1;jettySize=auto;html=1;entryX=0;entryY=0.5;entryDx=0;entryDy=0;curved=1;strokeWidth=2;fillColor=#fad7ac;strokeColor=#b46504;" edge="1" parent="1" source="wQoGshhMmGxjYzGjcs3c-11" target="wQoGshhMmGxjYzGjcs3c-29">
          <mxGeometry relative="1" as="geometry" />
        </mxCell>
        <mxCell id="wQoGshhMmGxjYzGjcs3c-11" value="" style="ellipse;whiteSpace=wrap;html=1;" vertex="1" parent="1">
          <mxGeometry x="94" y="523" width="100" height="70" as="geometry" />
        </mxCell>
        <mxCell id="wQoGshhMmGxjYzGjcs3c-12" value="" style="shape=actor;whiteSpace=wrap;html=1;" vertex="1" parent="1">
          <mxGeometry x="124" y="525" width="40" height="60" as="geometry" />
        </mxCell>
        <mxCell id="wQoGshhMmGxjYzGjcs3c-46" style="rounded=0;orthogonalLoop=1;jettySize=auto;html=1;entryX=0;entryY=0.25;entryDx=0;entryDy=0;strokeWidth=2;" edge="1" parent="1" source="wQoGshhMmGxjYzGjcs3c-13" target="wQoGshhMmGxjYzGjcs3c-15">
          <mxGeometry relative="1" as="geometry" />
        </mxCell>
        <mxCell id="wQoGshhMmGxjYzGjcs3c-13" value="" style="ellipse;whiteSpace=wrap;html=1;" vertex="1" parent="1">
          <mxGeometry x="90" y="220" width="100" height="70" as="geometry" />
        </mxCell>
        <mxCell id="wQoGshhMmGxjYzGjcs3c-14" value="" style="shape=actor;whiteSpace=wrap;html=1;" vertex="1" parent="1">
          <mxGeometry x="120" y="222" width="40" height="60" as="geometry" />
        </mxCell>
        <mxCell id="wQoGshhMmGxjYzGjcs3c-37" style="rounded=0;orthogonalLoop=1;jettySize=auto;html=1;entryX=0;entryY=0.5;entryDx=0;entryDy=0;exitX=1;exitY=0.5;exitDx=0;exitDy=0;strokeWidth=2;" edge="1" parent="1" source="wQoGshhMmGxjYzGjcs3c-15" target="wQoGshhMmGxjYzGjcs3c-33">
          <mxGeometry relative="1" as="geometry" />
        </mxCell>
        <mxCell id="wQoGshhMmGxjYzGjcs3c-15" value="TGW1" style="rounded=0;whiteSpace=wrap;html=1;strokeWidth=2;fillColor=#ffe6cc;strokeColor=#d79b00;" vertex="1" parent="1">
          <mxGeometry x="397" y="254" width="150" height="20" as="geometry" />
        </mxCell>
        <mxCell id="wQoGshhMmGxjYzGjcs3c-19" value="" style="edgeStyle=orthogonalEdgeStyle;rounded=0;orthogonalLoop=1;jettySize=auto;html=1;dashed=1;endArrow=none;startFill=0;dashPattern=1 1;strokeWidth=2;" edge="1" parent="1" source="wQoGshhMmGxjYzGjcs3c-16" target="wQoGshhMmGxjYzGjcs3c-15">
          <mxGeometry relative="1" as="geometry" />
        </mxCell>
        <mxCell id="wQoGshhMmGxjYzGjcs3c-20" value="冷备" style="edgeLabel;html=1;align=center;verticalAlign=middle;resizable=0;points=[];" vertex="1" connectable="0" parent="wQoGshhMmGxjYzGjcs3c-19">
          <mxGeometry x="0.1304" y="1" relative="1" as="geometry">
            <mxPoint as="offset" />
          </mxGeometry>
        </mxCell>
        <mxCell id="wQoGshhMmGxjYzGjcs3c-40" style="rounded=0;orthogonalLoop=1;jettySize=auto;html=1;entryX=0.5;entryY=0;entryDx=0;entryDy=0;dashed=1;dashPattern=8 8;exitX=1;exitY=0.5;exitDx=0;exitDy=0;strokeWidth=2;" edge="1" parent="1" source="wQoGshhMmGxjYzGjcs3c-16" target="wQoGshhMmGxjYzGjcs3c-33">
          <mxGeometry relative="1" as="geometry" />
        </mxCell>
        <mxCell id="wQoGshhMmGxjYzGjcs3c-16" value="TGW1(Cold Standby）" style="rounded=0;whiteSpace=wrap;html=1;strokeWidth=2;fillColor=#f5f5f5;gradientColor=#b3b3b3;strokeColor=#666666;" vertex="1" parent="1">
          <mxGeometry x="397" y="202" width="150" height="20" as="geometry" />
        </mxCell>
        <mxCell id="wQoGshhMmGxjYzGjcs3c-34" value="" style="edgeStyle=orthogonalEdgeStyle;rounded=0;orthogonalLoop=1;jettySize=auto;html=1;strokeWidth=2;" edge="1" parent="1" source="wQoGshhMmGxjYzGjcs3c-21" target="wQoGshhMmGxjYzGjcs3c-33">
          <mxGeometry relative="1" as="geometry" />
        </mxCell>
        <mxCell id="wQoGshhMmGxjYzGjcs3c-21" value="TGW2" style="rounded=0;whiteSpace=wrap;html=1;strokeWidth=2;fillColor=#ffe6cc;strokeColor=#d79b00;" vertex="1" parent="1">
          <mxGeometry x="397" y="394" width="150" height="20" as="geometry" />
        </mxCell>
        <mxCell id="wQoGshhMmGxjYzGjcs3c-22" value="" style="edgeStyle=orthogonalEdgeStyle;rounded=0;orthogonalLoop=1;jettySize=auto;html=1;dashed=1;endArrow=none;startFill=0;dashPattern=1 1;strokeWidth=2;" edge="1" parent="1" source="wQoGshhMmGxjYzGjcs3c-24" target="wQoGshhMmGxjYzGjcs3c-21">
          <mxGeometry relative="1" as="geometry" />
        </mxCell>
        <mxCell id="wQoGshhMmGxjYzGjcs3c-23" value="冷备" style="edgeLabel;html=1;align=center;verticalAlign=middle;resizable=0;points=[];" vertex="1" connectable="0" parent="wQoGshhMmGxjYzGjcs3c-22">
          <mxGeometry x="0.1304" y="1" relative="1" as="geometry">
            <mxPoint as="offset" />
          </mxGeometry>
        </mxCell>
        <mxCell id="wQoGshhMmGxjYzGjcs3c-24" value="TGW2(Cold Standby）" style="rounded=0;whiteSpace=wrap;html=1;strokeWidth=2;fillColor=#f5f5f5;gradientColor=#b3b3b3;strokeColor=#666666;" vertex="1" parent="1">
          <mxGeometry x="397" y="337" width="150" height="20" as="geometry" />
        </mxCell>
        <mxCell id="wQoGshhMmGxjYzGjcs3c-38" style="rounded=0;orthogonalLoop=1;jettySize=auto;html=1;entryX=0;entryY=0.5;entryDx=0;entryDy=0;exitX=1;exitY=0.5;exitDx=0;exitDy=0;strokeWidth=2;" edge="1" parent="1" source="wQoGshhMmGxjYzGjcs3c-25" target="wQoGshhMmGxjYzGjcs3c-33">
          <mxGeometry relative="1" as="geometry" />
        </mxCell>
        <mxCell id="wQoGshhMmGxjYzGjcs3c-41" style="rounded=0;orthogonalLoop=1;jettySize=auto;html=1;entryX=0.5;entryY=1;entryDx=0;entryDy=0;dashed=1;dashPattern=8 8;exitX=1;exitY=0.5;exitDx=0;exitDy=0;strokeWidth=2;" edge="1" parent="1" source="wQoGshhMmGxjYzGjcs3c-28" target="wQoGshhMmGxjYzGjcs3c-33">
          <mxGeometry relative="1" as="geometry">
            <mxPoint x="547" y="538" as="sourcePoint" />
          </mxGeometry>
        </mxCell>
        <mxCell id="wQoGshhMmGxjYzGjcs3c-25" value="TGW3" style="rounded=0;whiteSpace=wrap;html=1;strokeWidth=2;fillColor=#ffe6cc;strokeColor=#d79b00;" vertex="1" parent="1">
          <mxGeometry x="397" y="528" width="150" height="20" as="geometry" />
        </mxCell>
        <mxCell id="wQoGshhMmGxjYzGjcs3c-26" value="" style="edgeStyle=orthogonalEdgeStyle;rounded=0;orthogonalLoop=1;jettySize=auto;html=1;dashed=1;endArrow=none;startFill=0;dashPattern=1 1;strokeWidth=2;" edge="1" parent="1" source="wQoGshhMmGxjYzGjcs3c-28" target="wQoGshhMmGxjYzGjcs3c-25">
          <mxGeometry relative="1" as="geometry" />
        </mxCell>
        <mxCell id="wQoGshhMmGxjYzGjcs3c-27" value="冷备" style="edgeLabel;html=1;align=center;verticalAlign=middle;resizable=0;points=[];" vertex="1" connectable="0" parent="wQoGshhMmGxjYzGjcs3c-26">
          <mxGeometry x="0.1304" y="1" relative="1" as="geometry">
            <mxPoint as="offset" />
          </mxGeometry>
        </mxCell>
        <mxCell id="wQoGshhMmGxjYzGjcs3c-28" value="TGW3(Cold Standby）" style="rounded=0;whiteSpace=wrap;html=1;strokeWidth=2;fillColor=#f5f5f5;gradientColor=#b3b3b3;strokeColor=#666666;" vertex="1" parent="1">
          <mxGeometry x="397" y="477" width="150" height="20" as="geometry" />
        </mxCell>
        <mxCell id="wQoGshhMmGxjYzGjcs3c-39" style="rounded=0;orthogonalLoop=1;jettySize=auto;html=1;entryX=0;entryY=0.5;entryDx=0;entryDy=0;exitX=1;exitY=0.25;exitDx=0;exitDy=0;strokeWidth=2;" edge="1" parent="1" source="wQoGshhMmGxjYzGjcs3c-29" target="wQoGshhMmGxjYzGjcs3c-33">
          <mxGeometry relative="1" as="geometry">
            <mxPoint x="708" y="410" as="targetPoint" />
          </mxGeometry>
        </mxCell>
        <mxCell id="wQoGshhMmGxjYzGjcs3c-42" style="rounded=0;orthogonalLoop=1;jettySize=auto;html=1;entryX=0.5;entryY=1;entryDx=0;entryDy=0;dashed=1;dashPattern=8 8;strokeWidth=2;" edge="1" parent="1" target="wQoGshhMmGxjYzGjcs3c-33">
          <mxGeometry relative="1" as="geometry">
            <mxPoint x="546" y="610" as="sourcePoint" />
          </mxGeometry>
        </mxCell>
        <mxCell id="wQoGshhMmGxjYzGjcs3c-29" value="TGW4" style="rounded=0;whiteSpace=wrap;html=1;strokeWidth=2;fillColor=#ffe6cc;strokeColor=#d79b00;" vertex="1" parent="1">
          <mxGeometry x="397" y="651" width="150" height="20" as="geometry" />
        </mxCell>
        <mxCell id="wQoGshhMmGxjYzGjcs3c-30" value="" style="edgeStyle=orthogonalEdgeStyle;rounded=0;orthogonalLoop=1;jettySize=auto;html=1;dashed=1;endArrow=none;startFill=0;dashPattern=1 1;strokeWidth=2;" edge="1" parent="1" source="wQoGshhMmGxjYzGjcs3c-32" target="wQoGshhMmGxjYzGjcs3c-29">
          <mxGeometry relative="1" as="geometry" />
        </mxCell>
        <mxCell id="wQoGshhMmGxjYzGjcs3c-31" value="冷备" style="edgeLabel;html=1;align=center;verticalAlign=middle;resizable=0;points=[];" vertex="1" connectable="0" parent="wQoGshhMmGxjYzGjcs3c-30">
          <mxGeometry x="0.1304" y="1" relative="1" as="geometry">
            <mxPoint as="offset" />
          </mxGeometry>
        </mxCell>
        <mxCell id="wQoGshhMmGxjYzGjcs3c-32" value="TGW4(Cold Standby）" style="rounded=0;whiteSpace=wrap;html=1;strokeWidth=2;fillColor=#f5f5f5;gradientColor=#b3b3b3;strokeColor=#666666;" vertex="1" parent="1">
          <mxGeometry x="397" y="600" width="150" height="20" as="geometry" />
        </mxCell>
        <mxCell id="wQoGshhMmGxjYzGjcs3c-33" value="EXCH" style="rounded=0;whiteSpace=wrap;html=1;fillColor=#f8cecc;strokeColor=#b85450;strokeWidth=2;gradientColor=#ea6b66;" vertex="1" parent="1">
          <mxGeometry x="708" y="374" width="120" height="60" as="geometry" />
        </mxCell>
        <mxCell id="wQoGshhMmGxjYzGjcs3c-35" value="Trading Gateway" style="swimlane;whiteSpace=wrap;html=1;fillColor=#b0e3e6;strokeColor=#0e8088;" vertex="1" parent="1">
          <mxGeometry x="372" y="164" width="200" height="516" as="geometry" />
        </mxCell>
        <mxCell id="wQoGshhMmGxjYzGjcs3c-45" value="Client" style="swimlane;whiteSpace=wrap;html=1;fillColor=#d0cee2;strokeColor=#56517e;" vertex="1" parent="1">
          <mxGeometry x="70" y="164" width="140" height="516" as="geometry" />
        </mxCell>
        <mxCell id="wQoGshhMmGxjYzGjcs3c-58" style="rounded=0;orthogonalLoop=1;jettySize=auto;html=1;dashed=1;dashPattern=8 8;strokeWidth=2;" edge="1" parent="1">
          <mxGeometry relative="1" as="geometry">
            <mxPoint x="546" y="350" as="sourcePoint" />
            <mxPoint x="766" y="370" as="targetPoint" />
          </mxGeometry>
        </mxCell>
        <mxCell id="wQoGshhMmGxjYzGjcs3c-63" value="单客户&lt;div&gt;独享网关&lt;/div&gt;" style="whiteSpace=wrap;html=1;shape=mxgraph.basic.rectCallout;dx=30;dy=15;boundedLbl=1;fillColor=#ffcccc;strokeColor=#36393d;" vertex="1" parent="1">
          <mxGeometry x="250" y="186" width="74" height="52" as="geometry" />
        </mxCell>
        <mxCell id="wQoGshhMmGxjYzGjcs3c-64" value="多客户&lt;div&gt;多网关&lt;span style=&quot;background-color: transparent; color: light-dark(rgb(0, 0, 0), rgb(255, 255, 255));&quot;&gt;负载均衡&lt;/span&gt;&lt;/div&gt;" style="whiteSpace=wrap;html=1;shape=mxgraph.basic.rectCallout;dx=30;dy=15;boundedLbl=1;fillColor=#ffcccc;strokeColor=#36393d;" vertex="1" parent="1">
          <mxGeometry x="260" y="327" width="94" height="50" as="geometry" />
        </mxCell>
      </root>
    </mxGraphModel>
  </diagram>
</mxfile>
